<mxfile host="app.diagrams.net" agent="Mozilla/5.0 (Windows NT 10.0; Win64; x64) AppleWebKit/537.36 (KHTML, like Gecko) Chrome/124.0.0.0 YaBrowser/24.6.0.0 Safari/537.36" version="24.7.6" pages="2">
  <diagram name="DB Project" id="ey12yU7m-k0KGq1fMk_B">
    <mxGraphModel dx="1386" dy="3097" grid="1" gridSize="10" guides="1" tooltips="1" connect="1" arrows="1" fold="1" page="1" pageScale="1" pageWidth="827" pageHeight="1169" math="0" shadow="0">
      <root>
        <mxCell id="0" />
        <mxCell id="1" parent="0" />
        <mxCell id="csLIRg7EKENoaghVLYN3-34" value="" style="swimlane;startSize=0;fillColor=#B9E0A5;strokeColor=default;swimlaneFillColor=none;fillStyle=dots;" parent="1" vertex="1">
          <mxGeometry x="1920" y="-2040" width="200" height="360" as="geometry">
            <mxRectangle x="40" y="200" width="50" height="40" as="alternateBounds" />
          </mxGeometry>
        </mxCell>
        <mxCell id="csLIRg7EKENoaghVLYN3-35" value="User phiz.face" style="text;html=1;align=center;verticalAlign=middle;whiteSpace=wrap;rounded=0;" parent="csLIRg7EKENoaghVLYN3-34" vertex="1">
          <mxGeometry x="60" width="80" height="30" as="geometry" />
        </mxCell>
        <mxCell id="csLIRg7EKENoaghVLYN3-36" value="ID" style="text;html=1;align=center;verticalAlign=middle;whiteSpace=wrap;rounded=0;" parent="csLIRg7EKENoaghVLYN3-34" vertex="1">
          <mxGeometry y="40" width="200" height="40" as="geometry" />
        </mxCell>
        <mxCell id="csLIRg7EKENoaghVLYN3-39" value="ID_debit.card bank" style="text;html=1;align=center;verticalAlign=middle;whiteSpace=wrap;rounded=0;" parent="csLIRg7EKENoaghVLYN3-34" vertex="1">
          <mxGeometry y="160" width="200" height="40" as="geometry" />
        </mxCell>
        <mxCell id="csLIRg7EKENoaghVLYN3-41" value="LVL" style="text;html=1;align=center;verticalAlign=middle;whiteSpace=wrap;rounded=0;" parent="csLIRg7EKENoaghVLYN3-34" vertex="1">
          <mxGeometry y="80" width="200" height="40" as="geometry" />
        </mxCell>
        <mxCell id="csLIRg7EKENoaghVLYN3-74" value="ID_awards" style="text;html=1;align=center;verticalAlign=middle;whiteSpace=wrap;rounded=0;" parent="csLIRg7EKENoaghVLYN3-34" vertex="1">
          <mxGeometry y="200" width="200" height="40" as="geometry" />
        </mxCell>
        <mxCell id="csLIRg7EKENoaghVLYN3-75" value="ID_setting" style="text;html=1;align=center;verticalAlign=middle;whiteSpace=wrap;rounded=0;" parent="csLIRg7EKENoaghVLYN3-34" vertex="1">
          <mxGeometry y="120" width="200" height="40" as="geometry" />
        </mxCell>
        <mxCell id="h2uy1tZPQLhtZi0CYQHW-30" value="ID_history session" style="text;html=1;align=center;verticalAlign=middle;whiteSpace=wrap;rounded=0;" parent="csLIRg7EKENoaghVLYN3-34" vertex="1">
          <mxGeometry y="240" width="200" height="40" as="geometry" />
        </mxCell>
        <mxCell id="8iAgz6GP0BhCK0G63EhW-2" value="ID_Auth" style="text;html=1;align=center;verticalAlign=middle;whiteSpace=wrap;rounded=0;" parent="csLIRg7EKENoaghVLYN3-34" vertex="1">
          <mxGeometry y="280" width="200" height="40" as="geometry" />
        </mxCell>
        <mxCell id="MBNA6LIcdyiV74psL_LO-8" value="ID_user type" style="text;html=1;align=center;verticalAlign=middle;whiteSpace=wrap;rounded=0;" parent="csLIRg7EKENoaghVLYN3-34" vertex="1">
          <mxGeometry y="320" width="200" height="40" as="geometry" />
        </mxCell>
        <mxCell id="csLIRg7EKENoaghVLYN3-58" value="" style="swimlane;startSize=0;" parent="1" vertex="1">
          <mxGeometry x="1600" y="-2040" width="200" height="280" as="geometry">
            <mxRectangle x="40" y="200" width="50" height="40" as="alternateBounds" />
          </mxGeometry>
        </mxCell>
        <mxCell id="csLIRg7EKENoaghVLYN3-59" value="Awards" style="text;html=1;align=center;verticalAlign=middle;whiteSpace=wrap;rounded=0;" parent="csLIRg7EKENoaghVLYN3-58" vertex="1">
          <mxGeometry x="60" width="80" height="30" as="geometry" />
        </mxCell>
        <mxCell id="csLIRg7EKENoaghVLYN3-60" value="ID" style="text;html=1;align=center;verticalAlign=middle;whiteSpace=wrap;rounded=0;" parent="csLIRg7EKENoaghVLYN3-58" vertex="1">
          <mxGeometry y="40" width="200" height="40" as="geometry" />
        </mxCell>
        <mxCell id="csLIRg7EKENoaghVLYN3-61" value="Tittle" style="text;html=1;align=center;verticalAlign=middle;whiteSpace=wrap;rounded=0;" parent="csLIRg7EKENoaghVLYN3-58" vertex="1">
          <mxGeometry y="80" width="200" height="40" as="geometry" />
        </mxCell>
        <mxCell id="h2uy1tZPQLhtZi0CYQHW-51" value="Imag" style="text;html=1;align=center;verticalAlign=middle;whiteSpace=wrap;rounded=0;" parent="csLIRg7EKENoaghVLYN3-58" vertex="1">
          <mxGeometry y="120" width="200" height="40" as="geometry" />
        </mxCell>
        <mxCell id="h2uy1tZPQLhtZi0CYQHW-52" value="Description&amp;nbsp;" style="text;html=1;align=center;verticalAlign=middle;whiteSpace=wrap;rounded=0;" parent="csLIRg7EKENoaghVLYN3-58" vertex="1">
          <mxGeometry y="160" width="200" height="40" as="geometry" />
        </mxCell>
        <mxCell id="h2uy1tZPQLhtZi0CYQHW-55" value="Count money" style="text;html=1;align=center;verticalAlign=middle;whiteSpace=wrap;rounded=0;" parent="csLIRg7EKENoaghVLYN3-58" vertex="1">
          <mxGeometry y="200" width="200" height="40" as="geometry" />
        </mxCell>
        <mxCell id="z-p-9np8aNEtH0MGempq-6" value="ID_Awards type" style="text;html=1;align=center;verticalAlign=middle;whiteSpace=wrap;rounded=0;" vertex="1" parent="csLIRg7EKENoaghVLYN3-58">
          <mxGeometry y="240" width="200" height="40" as="geometry" />
        </mxCell>
        <mxCell id="csLIRg7EKENoaghVLYN3-85" value="" style="swimlane;startSize=0;" parent="1" vertex="1">
          <mxGeometry x="1410" y="-1540" width="200" height="290" as="geometry">
            <mxRectangle x="40" y="200" width="50" height="40" as="alternateBounds" />
          </mxGeometry>
        </mxCell>
        <mxCell id="csLIRg7EKENoaghVLYN3-86" value="Debit.card bank" style="text;html=1;align=center;verticalAlign=middle;whiteSpace=wrap;rounded=0;" parent="csLIRg7EKENoaghVLYN3-85" vertex="1">
          <mxGeometry x="60" width="80" height="30" as="geometry" />
        </mxCell>
        <mxCell id="csLIRg7EKENoaghVLYN3-87" value="ID" style="text;html=1;align=center;verticalAlign=middle;whiteSpace=wrap;rounded=0;" parent="csLIRg7EKENoaghVLYN3-85" vertex="1">
          <mxGeometry y="40" width="200" height="40" as="geometry" />
        </mxCell>
        <mxCell id="csLIRg7EKENoaghVLYN3-88" value="Full name bank" style="text;html=1;align=center;verticalAlign=middle;whiteSpace=wrap;rounded=0;" parent="csLIRg7EKENoaghVLYN3-85" vertex="1">
          <mxGeometry y="80" width="200" height="40" as="geometry" />
        </mxCell>
        <mxCell id="h2uy1tZPQLhtZi0CYQHW-72" value="Num card" style="text;html=1;align=center;verticalAlign=middle;whiteSpace=wrap;rounded=0;" parent="csLIRg7EKENoaghVLYN3-85" vertex="1">
          <mxGeometry y="120" width="200" height="40" as="geometry" />
        </mxCell>
        <mxCell id="h2uy1tZPQLhtZi0CYQHW-74" value="Date" style="text;html=1;align=center;verticalAlign=middle;whiteSpace=wrap;rounded=0;" parent="csLIRg7EKENoaghVLYN3-85" vertex="1">
          <mxGeometry y="160" width="200" height="40" as="geometry" />
        </mxCell>
        <mxCell id="h2uy1tZPQLhtZi0CYQHW-75" value="CVV" style="text;html=1;align=center;verticalAlign=middle;whiteSpace=wrap;rounded=0;" parent="csLIRg7EKENoaghVLYN3-85" vertex="1">
          <mxGeometry y="200" width="200" height="40" as="geometry" />
        </mxCell>
        <mxCell id="opOszz-HnJrdjQZakFIA-20" value="ID_transaction" style="text;html=1;align=center;verticalAlign=middle;whiteSpace=wrap;rounded=0;" parent="csLIRg7EKENoaghVLYN3-85" vertex="1">
          <mxGeometry y="250" width="200" height="40" as="geometry" />
        </mxCell>
        <mxCell id="csLIRg7EKENoaghVLYN3-107" value="" style="swimlane;startSize=0;" parent="1" vertex="1">
          <mxGeometry x="1380" y="-1060" width="200" height="394" as="geometry">
            <mxRectangle x="40" y="200" width="50" height="40" as="alternateBounds" />
          </mxGeometry>
        </mxCell>
        <mxCell id="csLIRg7EKENoaghVLYN3-108" value="Company" style="text;html=1;align=center;verticalAlign=middle;whiteSpace=wrap;rounded=0;" parent="csLIRg7EKENoaghVLYN3-107" vertex="1">
          <mxGeometry x="60" y="4" width="80" height="30" as="geometry" />
        </mxCell>
        <mxCell id="csLIRg7EKENoaghVLYN3-109" value="ID" style="text;html=1;align=center;verticalAlign=middle;whiteSpace=wrap;rounded=0;" parent="csLIRg7EKENoaghVLYN3-107" vertex="1">
          <mxGeometry y="34" width="200" height="40" as="geometry" />
        </mxCell>
        <mxCell id="csLIRg7EKENoaghVLYN3-110" value="Company name" style="text;html=1;align=center;verticalAlign=middle;whiteSpace=wrap;rounded=0;" parent="csLIRg7EKENoaghVLYN3-107" vertex="1">
          <mxGeometry x="1" y="74" width="200" height="40" as="geometry" />
        </mxCell>
        <mxCell id="csLIRg7EKENoaghVLYN3-111" value="Mail" style="text;html=1;align=center;verticalAlign=middle;whiteSpace=wrap;rounded=0;" parent="csLIRg7EKENoaghVLYN3-107" vertex="1">
          <mxGeometry y="154" width="200" height="40" as="geometry" />
        </mxCell>
        <mxCell id="csLIRg7EKENoaghVLYN3-116" value="&lt;div style=&quot;text-align: start;&quot;&gt;&lt;span style=&quot;background-color: initial;&quot;&gt;ID_business account details&lt;/span&gt;&lt;/div&gt;" style="text;html=1;align=center;verticalAlign=middle;whiteSpace=wrap;rounded=0;" parent="csLIRg7EKENoaghVLYN3-107" vertex="1">
          <mxGeometry y="354" width="200" height="40" as="geometry" />
        </mxCell>
        <mxCell id="csLIRg7EKENoaghVLYN3-117" value="ID_User con Company phiz.face" style="text;html=1;align=center;verticalAlign=middle;whiteSpace=wrap;rounded=0;" parent="csLIRg7EKENoaghVLYN3-107" vertex="1">
          <mxGeometry x="1" y="314" width="200" height="40" as="geometry" />
        </mxCell>
        <mxCell id="csLIRg7EKENoaghVLYN3-120" value="ID_address" style="text;html=1;align=center;verticalAlign=middle;whiteSpace=wrap;rounded=0;" parent="csLIRg7EKENoaghVLYN3-107" vertex="1">
          <mxGeometry y="274" width="200" height="40" as="geometry" />
        </mxCell>
        <mxCell id="b094mv4lrQVxFqOp9tiN-1" value="&lt;div style=&quot;text-align: start;&quot;&gt;&lt;span style=&quot;background-color: initial;&quot;&gt;ID_rating&amp;nbsp;&lt;/span&gt;&lt;/div&gt;" style="text;html=1;align=center;verticalAlign=middle;whiteSpace=wrap;rounded=0;" parent="csLIRg7EKENoaghVLYN3-107" vertex="1">
          <mxGeometry y="234" width="200" height="40" as="geometry" />
        </mxCell>
        <mxCell id="NR5KIYlSiuEwGmeg9oS_-16" value="ID_Company Form" style="text;html=1;align=center;verticalAlign=middle;whiteSpace=wrap;rounded=0;" parent="csLIRg7EKENoaghVLYN3-107" vertex="1">
          <mxGeometry y="194" width="200" height="40" as="geometry" />
        </mxCell>
        <mxCell id="csLIRg7EKENoaghVLYN3-119" value="Web" style="text;html=1;align=center;verticalAlign=middle;whiteSpace=wrap;rounded=0;" parent="csLIRg7EKENoaghVLYN3-107" vertex="1">
          <mxGeometry y="110" width="200" height="40" as="geometry" />
        </mxCell>
        <mxCell id="csLIRg7EKENoaghVLYN3-125" value="" style="swimlane;startSize=0;" parent="1" vertex="1">
          <mxGeometry x="2010" y="-796" width="200" height="160" as="geometry">
            <mxRectangle x="40" y="200" width="50" height="40" as="alternateBounds" />
          </mxGeometry>
        </mxCell>
        <mxCell id="csLIRg7EKENoaghVLYN3-126" value="Documents" style="text;html=1;align=center;verticalAlign=middle;whiteSpace=wrap;rounded=0;" parent="csLIRg7EKENoaghVLYN3-125" vertex="1">
          <mxGeometry x="60" width="80" height="30" as="geometry" />
        </mxCell>
        <mxCell id="csLIRg7EKENoaghVLYN3-127" value="ID" style="text;html=1;align=center;verticalAlign=middle;whiteSpace=wrap;rounded=0;" parent="csLIRg7EKENoaghVLYN3-125" vertex="1">
          <mxGeometry y="40" width="200" height="40" as="geometry" />
        </mxCell>
        <mxCell id="csLIRg7EKENoaghVLYN3-128" value="File" style="text;html=1;align=center;verticalAlign=middle;whiteSpace=wrap;rounded=0;" parent="csLIRg7EKENoaghVLYN3-125" vertex="1">
          <mxGeometry y="80" width="200" height="40" as="geometry" />
        </mxCell>
        <mxCell id="csLIRg7EKENoaghVLYN3-143" value="ID_typeDoc" style="text;html=1;align=center;verticalAlign=middle;whiteSpace=wrap;rounded=0;" parent="csLIRg7EKENoaghVLYN3-125" vertex="1">
          <mxGeometry y="120" width="200" height="40" as="geometry" />
        </mxCell>
        <mxCell id="csLIRg7EKENoaghVLYN3-135" value="" style="swimlane;startSize=0;" parent="1" vertex="1">
          <mxGeometry x="1720" y="-1200" width="200" height="410" as="geometry">
            <mxRectangle x="40" y="200" width="50" height="40" as="alternateBounds" />
          </mxGeometry>
        </mxCell>
        <mxCell id="csLIRg7EKENoaghVLYN3-137" value="ID" style="text;html=1;align=center;verticalAlign=middle;whiteSpace=wrap;rounded=0;" parent="csLIRg7EKENoaghVLYN3-135" vertex="1">
          <mxGeometry y="50" width="200" height="40" as="geometry" />
        </mxCell>
        <mxCell id="csLIRg7EKENoaghVLYN3-139" value="Star Date time" style="text;html=1;align=center;verticalAlign=middle;whiteSpace=wrap;rounded=0;" parent="csLIRg7EKENoaghVLYN3-135" vertex="1">
          <mxGeometry y="130" width="200" height="40" as="geometry" />
        </mxCell>
        <mxCell id="csLIRg7EKENoaghVLYN3-140" value="Finish Date time" style="text;html=1;align=center;verticalAlign=middle;whiteSpace=wrap;rounded=0;" parent="csLIRg7EKENoaghVLYN3-135" vertex="1">
          <mxGeometry y="170" width="200" height="40" as="geometry" />
        </mxCell>
        <mxCell id="csLIRg7EKENoaghVLYN3-141" value="Order" style="text;html=1;align=center;verticalAlign=middle;whiteSpace=wrap;rounded=0;" parent="csLIRg7EKENoaghVLYN3-135" vertex="1">
          <mxGeometry width="200" height="40" as="geometry" />
        </mxCell>
        <mxCell id="csLIRg7EKENoaghVLYN3-142" value="NameIdOrder" style="text;html=1;align=center;verticalAlign=middle;whiteSpace=wrap;rounded=0;" parent="csLIRg7EKENoaghVLYN3-135" vertex="1">
          <mxGeometry y="90" width="200" height="40" as="geometry" />
        </mxCell>
        <mxCell id="csLIRg7EKENoaghVLYN3-145" value="ID_Company" style="text;html=1;align=center;verticalAlign=middle;whiteSpace=wrap;rounded=0;" parent="csLIRg7EKENoaghVLYN3-135" vertex="1">
          <mxGeometry y="244" width="200" height="40" as="geometry" />
        </mxCell>
        <mxCell id="xRr5vuv_WKvIwvED6xIB-14" value="ID_statusOrder" style="text;html=1;align=center;verticalAlign=middle;whiteSpace=wrap;rounded=0;" parent="csLIRg7EKENoaghVLYN3-135" vertex="1">
          <mxGeometry y="290" width="200" height="40" as="geometry" />
        </mxCell>
        <mxCell id="csLIRg7EKENoaghVLYN3-144" value="ID_Documents" style="text;html=1;align=center;verticalAlign=middle;whiteSpace=wrap;rounded=0;" parent="csLIRg7EKENoaghVLYN3-135" vertex="1">
          <mxGeometry y="370" width="200" height="40" as="geometry" />
        </mxCell>
        <mxCell id="tyz_u_CxFQXvNKMrJdVT-25" value="ID_Material type&lt;span style=&quot;color: rgba(0, 0, 0, 0); font-family: monospace; font-size: 0px; text-align: start; text-wrap: nowrap;&quot;&gt;%3CmxGraphModel%3E%3Croot%3E%3CmxCell%20id%3D%220%22%2F%3E%3CmxCell%20id%3D%221%22%20parent%3D%220%22%2F%3E%3CmxCell%20id%3D%222%22%20value%3D%22ID%22%20style%3D%22text%3Bhtml%3D1%3Balign%3Dcenter%3BverticalAlign%3Dmiddle%3BwhiteSpace%3Dwrap%3Brounded%3D0%3B%22%20vertex%3D%221%22%20parent%3D%221%22%3E%3CmxGeometry%20x%3D%22260%22%20y%3D%22-870%22%20width%3D%22200%22%20height%3D%2240%22%20as%3D%22geometry%22%2F%3E%3C%2FmxCell%3E%3C%2Froot%3E%3C%2FmxGraphModel%3E&lt;/span&gt;" style="text;html=1;align=center;verticalAlign=middle;whiteSpace=wrap;rounded=0;" parent="csLIRg7EKENoaghVLYN3-135" vertex="1">
          <mxGeometry y="330" width="200" height="40" as="geometry" />
        </mxCell>
        <mxCell id="tyz_u_CxFQXvNKMrJdVT-27" value="Quantity" style="text;html=1;align=center;verticalAlign=middle;whiteSpace=wrap;rounded=0;" parent="csLIRg7EKENoaghVLYN3-135" vertex="1">
          <mxGeometry y="210" width="200" height="40" as="geometry" />
        </mxCell>
        <mxCell id="csLIRg7EKENoaghVLYN3-148" value="" style="swimlane;startSize=0;" parent="1" vertex="1">
          <mxGeometry x="2250" y="-500" width="200" height="240" as="geometry">
            <mxRectangle x="40" y="200" width="50" height="40" as="alternateBounds" />
          </mxGeometry>
        </mxCell>
        <mxCell id="csLIRg7EKENoaghVLYN3-149" value="User connected Company phiz.face" style="text;html=1;align=center;verticalAlign=middle;whiteSpace=wrap;rounded=0;" parent="csLIRg7EKENoaghVLYN3-148" vertex="1">
          <mxGeometry x="40" width="140" height="40" as="geometry" />
        </mxCell>
        <mxCell id="csLIRg7EKENoaghVLYN3-150" value="ID" style="text;html=1;align=center;verticalAlign=middle;whiteSpace=wrap;rounded=0;" parent="csLIRg7EKENoaghVLYN3-148" vertex="1">
          <mxGeometry y="40" width="200" height="40" as="geometry" />
        </mxCell>
        <mxCell id="csLIRg7EKENoaghVLYN3-152" value="Telephone num" style="text;html=1;align=center;verticalAlign=middle;whiteSpace=wrap;rounded=0;" parent="csLIRg7EKENoaghVLYN3-148" vertex="1">
          <mxGeometry y="120" width="200" height="40" as="geometry" />
        </mxCell>
        <mxCell id="csLIRg7EKENoaghVLYN3-155" value="Full name" style="text;html=1;align=center;verticalAlign=middle;whiteSpace=wrap;rounded=0;" parent="csLIRg7EKENoaghVLYN3-148" vertex="1">
          <mxGeometry y="80" width="200" height="40" as="geometry" />
        </mxCell>
        <mxCell id="ru_o6e3Y8pDWjpEOkh-R-31" value="Email" style="text;html=1;align=center;verticalAlign=middle;whiteSpace=wrap;rounded=0;" parent="csLIRg7EKENoaghVLYN3-148" vertex="1">
          <mxGeometry y="160" width="200" height="40" as="geometry" />
        </mxCell>
        <mxCell id="ru_o6e3Y8pDWjpEOkh-R-32" value="Password" style="text;html=1;align=center;verticalAlign=middle;whiteSpace=wrap;rounded=0;" parent="csLIRg7EKENoaghVLYN3-148" vertex="1">
          <mxGeometry y="200" width="200" height="40" as="geometry" />
        </mxCell>
        <mxCell id="csLIRg7EKENoaghVLYN3-165" value="" style="swimlane;startSize=0;" parent="1" vertex="1">
          <mxGeometry x="1480" y="-2250" width="200" height="160" as="geometry">
            <mxRectangle x="40" y="200" width="50" height="40" as="alternateBounds" />
          </mxGeometry>
        </mxCell>
        <mxCell id="csLIRg7EKENoaghVLYN3-166" value="Pnandomat" style="text;html=1;align=center;verticalAlign=middle;whiteSpace=wrap;rounded=0;" parent="csLIRg7EKENoaghVLYN3-165" vertex="1">
          <mxGeometry x="60" width="80" height="30" as="geometry" />
        </mxCell>
        <mxCell id="csLIRg7EKENoaghVLYN3-167" value="ID" style="text;html=1;align=center;verticalAlign=middle;whiteSpace=wrap;rounded=0;" parent="csLIRg7EKENoaghVLYN3-165" vertex="1">
          <mxGeometry y="40" width="200" height="40" as="geometry" />
        </mxCell>
        <mxCell id="h2uy1tZPQLhtZi0CYQHW-5" value="ID_resource" style="text;html=1;align=center;verticalAlign=middle;whiteSpace=wrap;rounded=0;" parent="csLIRg7EKENoaghVLYN3-165" vertex="1">
          <mxGeometry y="120" width="200" height="40" as="geometry" />
        </mxCell>
        <mxCell id="AszL2Cz35tuWE-fF-ffO-5" value="ValumPhandomataConst" style="text;html=1;align=center;verticalAlign=middle;whiteSpace=wrap;rounded=0;" parent="csLIRg7EKENoaghVLYN3-165" vertex="1">
          <mxGeometry y="80" width="200" height="40" as="geometry" />
        </mxCell>
        <mxCell id="h2uy1tZPQLhtZi0CYQHW-12" value="" style="swimlane;startSize=0;" parent="1" vertex="1">
          <mxGeometry x="1130" y="-2270" width="200" height="160" as="geometry">
            <mxRectangle x="40" y="200" width="50" height="40" as="alternateBounds" />
          </mxGeometry>
        </mxCell>
        <mxCell id="h2uy1tZPQLhtZi0CYQHW-13" value="Resource" style="text;html=1;align=center;verticalAlign=middle;whiteSpace=wrap;rounded=0;" parent="h2uy1tZPQLhtZi0CYQHW-12" vertex="1">
          <mxGeometry x="60" width="80" height="30" as="geometry" />
        </mxCell>
        <mxCell id="h2uy1tZPQLhtZi0CYQHW-14" value="ID" style="text;html=1;align=center;verticalAlign=middle;whiteSpace=wrap;rounded=0;" parent="h2uy1tZPQLhtZi0CYQHW-12" vertex="1">
          <mxGeometry y="40" width="200" height="40" as="geometry" />
        </mxCell>
        <mxCell id="h2uy1tZPQLhtZi0CYQHW-19" value="Volum" style="text;html=1;align=center;verticalAlign=middle;whiteSpace=wrap;rounded=0;" parent="h2uy1tZPQLhtZi0CYQHW-12" vertex="1">
          <mxGeometry y="80" width="200" height="40" as="geometry" />
        </mxCell>
        <mxCell id="h2uy1tZPQLhtZi0CYQHW-28" value="ID_Type.res&amp;nbsp;" style="text;html=1;align=center;verticalAlign=middle;whiteSpace=wrap;rounded=0;" parent="h2uy1tZPQLhtZi0CYQHW-12" vertex="1">
          <mxGeometry y="120" width="200" height="40" as="geometry" />
        </mxCell>
        <mxCell id="h2uy1tZPQLhtZi0CYQHW-20" value="" style="swimlane;startSize=0;" parent="1" vertex="1">
          <mxGeometry x="1130" y="-2070" width="200" height="120" as="geometry">
            <mxRectangle x="40" y="200" width="50" height="40" as="alternateBounds" />
          </mxGeometry>
        </mxCell>
        <mxCell id="h2uy1tZPQLhtZi0CYQHW-21" value="Type Resource" style="text;html=1;align=center;verticalAlign=middle;whiteSpace=wrap;rounded=0;" parent="h2uy1tZPQLhtZi0CYQHW-20" vertex="1">
          <mxGeometry x="60" width="80" height="30" as="geometry" />
        </mxCell>
        <mxCell id="h2uy1tZPQLhtZi0CYQHW-22" value="ID" style="text;html=1;align=center;verticalAlign=middle;whiteSpace=wrap;rounded=0;" parent="h2uy1tZPQLhtZi0CYQHW-20" vertex="1">
          <mxGeometry y="40" width="200" height="40" as="geometry" />
        </mxCell>
        <mxCell id="h2uy1tZPQLhtZi0CYQHW-25" value="Tittel" style="text;html=1;align=center;verticalAlign=middle;whiteSpace=wrap;rounded=0;" parent="h2uy1tZPQLhtZi0CYQHW-20" vertex="1">
          <mxGeometry y="80" width="200" height="40" as="geometry" />
        </mxCell>
        <mxCell id="h2uy1tZPQLhtZi0CYQHW-37" value="" style="swimlane;startSize=0;" parent="1" vertex="1">
          <mxGeometry x="1197" y="-1880" width="200" height="240" as="geometry">
            <mxRectangle x="40" y="200" width="50" height="40" as="alternateBounds" />
          </mxGeometry>
        </mxCell>
        <mxCell id="h2uy1tZPQLhtZi0CYQHW-38" value="History session" style="text;html=1;align=center;verticalAlign=middle;whiteSpace=wrap;rounded=0;" parent="h2uy1tZPQLhtZi0CYQHW-37" vertex="1">
          <mxGeometry x="60" width="80" height="30" as="geometry" />
        </mxCell>
        <mxCell id="h2uy1tZPQLhtZi0CYQHW-39" value="ID" style="text;html=1;align=center;verticalAlign=middle;whiteSpace=wrap;rounded=0;" parent="h2uy1tZPQLhtZi0CYQHW-37" vertex="1">
          <mxGeometry y="40" width="200" height="40" as="geometry" />
        </mxCell>
        <mxCell id="h2uy1tZPQLhtZi0CYQHW-43" value="ID_resource" style="text;html=1;align=center;verticalAlign=middle;whiteSpace=wrap;rounded=0;" parent="h2uy1tZPQLhtZi0CYQHW-37" vertex="1">
          <mxGeometry y="160" width="200" height="40" as="geometry" />
        </mxCell>
        <mxCell id="h2uy1tZPQLhtZi0CYQHW-58" value="Date start" style="text;html=1;align=center;verticalAlign=middle;whiteSpace=wrap;rounded=0;" parent="h2uy1tZPQLhtZi0CYQHW-37" vertex="1">
          <mxGeometry y="80" width="200" height="40" as="geometry" />
        </mxCell>
        <mxCell id="h2uy1tZPQLhtZi0CYQHW-59" value="Date finish" style="text;html=1;align=center;verticalAlign=middle;whiteSpace=wrap;rounded=0;" parent="h2uy1tZPQLhtZi0CYQHW-37" vertex="1">
          <mxGeometry y="120" width="200" height="40" as="geometry" />
        </mxCell>
        <mxCell id="AszL2Cz35tuWE-fF-ffO-12" value="ID_Store" style="text;html=1;align=center;verticalAlign=middle;whiteSpace=wrap;rounded=0;" parent="h2uy1tZPQLhtZi0CYQHW-37" vertex="1">
          <mxGeometry y="200" width="200" height="40" as="geometry" />
        </mxCell>
        <mxCell id="h2uy1tZPQLhtZi0CYQHW-46" style="edgeStyle=orthogonalEdgeStyle;rounded=0;orthogonalLoop=1;jettySize=auto;html=1;entryX=1;entryY=0.5;entryDx=0;entryDy=0;exitX=1;exitY=0.5;exitDx=0;exitDy=0;" parent="1" source="h2uy1tZPQLhtZi0CYQHW-22" target="h2uy1tZPQLhtZi0CYQHW-28" edge="1">
          <mxGeometry relative="1" as="geometry">
            <Array as="points">
              <mxPoint x="1360" y="-2010" />
              <mxPoint x="1360" y="-2130" />
            </Array>
          </mxGeometry>
        </mxCell>
        <mxCell id="h2uy1tZPQLhtZi0CYQHW-48" style="edgeStyle=orthogonalEdgeStyle;rounded=0;orthogonalLoop=1;jettySize=auto;html=1;exitX=1;exitY=0.5;exitDx=0;exitDy=0;entryX=0;entryY=0.5;entryDx=0;entryDy=0;" parent="1" source="h2uy1tZPQLhtZi0CYQHW-14" target="h2uy1tZPQLhtZi0CYQHW-5" edge="1">
          <mxGeometry relative="1" as="geometry">
            <Array as="points">
              <mxPoint x="1400" y="-2210" />
              <mxPoint x="1400" y="-2110" />
            </Array>
          </mxGeometry>
        </mxCell>
        <mxCell id="h2uy1tZPQLhtZi0CYQHW-57" style="edgeStyle=orthogonalEdgeStyle;rounded=0;orthogonalLoop=1;jettySize=auto;html=1;entryX=0;entryY=0.5;entryDx=0;entryDy=0;exitX=1;exitY=0.5;exitDx=0;exitDy=0;" parent="1" source="csLIRg7EKENoaghVLYN3-60" target="csLIRg7EKENoaghVLYN3-74" edge="1">
          <mxGeometry relative="1" as="geometry">
            <Array as="points">
              <mxPoint x="1840" y="-1980" />
              <mxPoint x="1840" y="-1820" />
            </Array>
          </mxGeometry>
        </mxCell>
        <mxCell id="h2uy1tZPQLhtZi0CYQHW-61" style="edgeStyle=orthogonalEdgeStyle;rounded=0;orthogonalLoop=1;jettySize=auto;html=1;entryX=0;entryY=0.5;entryDx=0;entryDy=0;" parent="1" source="h2uy1tZPQLhtZi0CYQHW-39" target="h2uy1tZPQLhtZi0CYQHW-30" edge="1">
          <mxGeometry relative="1" as="geometry">
            <Array as="points">
              <mxPoint x="1480" y="-1820" />
              <mxPoint x="1480" y="-1700" />
              <mxPoint x="1880" y="-1700" />
              <mxPoint x="1880" y="-1780" />
            </Array>
          </mxGeometry>
        </mxCell>
        <mxCell id="h2uy1tZPQLhtZi0CYQHW-63" style="edgeStyle=orthogonalEdgeStyle;rounded=0;orthogonalLoop=1;jettySize=auto;html=1;" parent="1" source="h2uy1tZPQLhtZi0CYQHW-14" target="h2uy1tZPQLhtZi0CYQHW-43" edge="1">
          <mxGeometry relative="1" as="geometry">
            <Array as="points">
              <mxPoint x="1090" y="-2210" />
              <mxPoint x="1090" y="-1700" />
            </Array>
          </mxGeometry>
        </mxCell>
        <mxCell id="h2uy1tZPQLhtZi0CYQHW-64" value="" style="swimlane;startSize=0;" parent="1" vertex="1">
          <mxGeometry x="1120" y="-1610" width="200" height="320" as="geometry">
            <mxRectangle x="40" y="200" width="50" height="40" as="alternateBounds" />
          </mxGeometry>
        </mxCell>
        <mxCell id="h2uy1tZPQLhtZi0CYQHW-65" value="Setting" style="text;html=1;align=center;verticalAlign=middle;whiteSpace=wrap;rounded=0;" parent="h2uy1tZPQLhtZi0CYQHW-64" vertex="1">
          <mxGeometry x="60" width="80" height="30" as="geometry" />
        </mxCell>
        <mxCell id="h2uy1tZPQLhtZi0CYQHW-66" value="ID" style="text;html=1;align=center;verticalAlign=middle;whiteSpace=wrap;rounded=0;" parent="h2uy1tZPQLhtZi0CYQHW-64" vertex="1">
          <mxGeometry y="40" width="200" height="40" as="geometry" />
        </mxCell>
        <mxCell id="h2uy1tZPQLhtZi0CYQHW-67" value="Nickname" style="text;html=1;align=center;verticalAlign=middle;whiteSpace=wrap;rounded=0;" parent="h2uy1tZPQLhtZi0CYQHW-64" vertex="1">
          <mxGeometry y="80" width="200" height="40" as="geometry" />
        </mxCell>
        <mxCell id="h2uy1tZPQLhtZi0CYQHW-68" value="Telephone num" style="text;html=1;align=center;verticalAlign=middle;whiteSpace=wrap;rounded=0;" parent="h2uy1tZPQLhtZi0CYQHW-64" vertex="1">
          <mxGeometry y="120" width="200" height="40" as="geometry" />
        </mxCell>
        <mxCell id="h2uy1tZPQLhtZi0CYQHW-78" value="GEO location" style="text;html=1;align=center;verticalAlign=middle;whiteSpace=wrap;rounded=0;" parent="h2uy1tZPQLhtZi0CYQHW-64" vertex="1">
          <mxGeometry y="160" width="200" height="40" as="geometry" />
        </mxCell>
        <mxCell id="h2uy1tZPQLhtZi0CYQHW-79" value="Account photo" style="text;html=1;align=center;verticalAlign=middle;whiteSpace=wrap;rounded=0;" parent="h2uy1tZPQLhtZi0CYQHW-64" vertex="1">
          <mxGeometry y="200" width="200" height="40" as="geometry" />
        </mxCell>
        <mxCell id="h2uy1tZPQLhtZi0CYQHW-81" value="Style apps" style="text;html=1;align=center;verticalAlign=middle;whiteSpace=wrap;rounded=0;" parent="h2uy1tZPQLhtZi0CYQHW-64" vertex="1">
          <mxGeometry y="240" width="200" height="40" as="geometry" />
        </mxCell>
        <mxCell id="ru_o6e3Y8pDWjpEOkh-R-34" value="Password" style="text;html=1;align=center;verticalAlign=middle;whiteSpace=wrap;rounded=0;" parent="h2uy1tZPQLhtZi0CYQHW-64" vertex="1">
          <mxGeometry y="280" width="200" height="40" as="geometry" />
        </mxCell>
        <mxCell id="h2uy1tZPQLhtZi0CYQHW-76" style="edgeStyle=orthogonalEdgeStyle;rounded=0;orthogonalLoop=1;jettySize=auto;html=1;entryX=0;entryY=0.5;entryDx=0;entryDy=0;" parent="1" source="csLIRg7EKENoaghVLYN3-87" target="csLIRg7EKENoaghVLYN3-39" edge="1">
          <mxGeometry relative="1" as="geometry">
            <Array as="points">
              <mxPoint x="1820" y="-1480" />
              <mxPoint x="1820" y="-1860" />
            </Array>
          </mxGeometry>
        </mxCell>
        <mxCell id="h2uy1tZPQLhtZi0CYQHW-82" style="edgeStyle=orthogonalEdgeStyle;rounded=0;orthogonalLoop=1;jettySize=auto;html=1;entryX=0;entryY=0.5;entryDx=0;entryDy=0;exitX=1;exitY=0.25;exitDx=0;exitDy=0;" parent="1" source="h2uy1tZPQLhtZi0CYQHW-66" target="csLIRg7EKENoaghVLYN3-75" edge="1">
          <mxGeometry relative="1" as="geometry">
            <mxPoint x="1770" y="-1369.9714285714285" as="sourcePoint" />
            <mxPoint x="1810" y="-1850" as="targetPoint" />
            <Array as="points">
              <mxPoint x="1360" y="-1560" />
              <mxPoint x="1360" y="-1580" />
              <mxPoint x="1860" y="-1580" />
              <mxPoint x="1860" y="-1900" />
            </Array>
          </mxGeometry>
        </mxCell>
        <mxCell id="b094mv4lrQVxFqOp9tiN-2" value="" style="swimlane;startSize=0;" parent="1" vertex="1">
          <mxGeometry x="1080" y="-1046" width="200" height="140" as="geometry">
            <mxRectangle x="40" y="200" width="50" height="40" as="alternateBounds" />
          </mxGeometry>
        </mxCell>
        <mxCell id="b094mv4lrQVxFqOp9tiN-3" value="ID" style="text;html=1;align=center;verticalAlign=middle;whiteSpace=wrap;rounded=0;" parent="b094mv4lrQVxFqOp9tiN-2" vertex="1">
          <mxGeometry y="60" width="200" height="40" as="geometry" />
        </mxCell>
        <mxCell id="b094mv4lrQVxFqOp9tiN-6" value="Rating company" style="text;html=1;align=center;verticalAlign=middle;whiteSpace=wrap;rounded=0;" parent="b094mv4lrQVxFqOp9tiN-2" vertex="1">
          <mxGeometry width="200" height="40" as="geometry" />
        </mxCell>
        <mxCell id="ru_o6e3Y8pDWjpEOkh-R-3" value="Quantity" style="text;html=1;align=center;verticalAlign=middle;whiteSpace=wrap;rounded=0;" parent="b094mv4lrQVxFqOp9tiN-2" vertex="1">
          <mxGeometry y="100" width="200" height="40" as="geometry" />
        </mxCell>
        <mxCell id="ru_o6e3Y8pDWjpEOkh-R-24" value="" style="swimlane;startSize=0;" parent="1" vertex="1">
          <mxGeometry x="2270" y="-716" width="200" height="120" as="geometry">
            <mxRectangle x="40" y="200" width="50" height="40" as="alternateBounds" />
          </mxGeometry>
        </mxCell>
        <mxCell id="ru_o6e3Y8pDWjpEOkh-R-25" value="Type documents" style="text;html=1;align=center;verticalAlign=middle;whiteSpace=wrap;rounded=0;" parent="ru_o6e3Y8pDWjpEOkh-R-24" vertex="1">
          <mxGeometry x="50" width="100" height="30" as="geometry" />
        </mxCell>
        <mxCell id="ru_o6e3Y8pDWjpEOkh-R-26" value="ID" style="text;html=1;align=center;verticalAlign=middle;whiteSpace=wrap;rounded=0;" parent="ru_o6e3Y8pDWjpEOkh-R-24" vertex="1">
          <mxGeometry y="40" width="200" height="40" as="geometry" />
        </mxCell>
        <mxCell id="ru_o6e3Y8pDWjpEOkh-R-27" value="Name" style="text;html=1;align=center;verticalAlign=middle;whiteSpace=wrap;rounded=0;" parent="ru_o6e3Y8pDWjpEOkh-R-24" vertex="1">
          <mxGeometry y="80" width="200" height="40" as="geometry" />
        </mxCell>
        <mxCell id="ru_o6e3Y8pDWjpEOkh-R-28" style="edgeStyle=orthogonalEdgeStyle;rounded=0;orthogonalLoop=1;jettySize=auto;html=1;exitX=0;exitY=0.5;exitDx=0;exitDy=0;entryX=1;entryY=0.5;entryDx=0;entryDy=0;" parent="1" source="ru_o6e3Y8pDWjpEOkh-R-26" target="csLIRg7EKENoaghVLYN3-143" edge="1">
          <mxGeometry relative="1" as="geometry" />
        </mxCell>
        <mxCell id="xRr5vuv_WKvIwvED6xIB-1" value="" style="swimlane;startSize=0;" parent="1" vertex="1">
          <mxGeometry x="2000" y="-450" width="200" height="360" as="geometry">
            <mxRectangle x="40" y="200" width="50" height="40" as="alternateBounds" />
          </mxGeometry>
        </mxCell>
        <mxCell id="xRr5vuv_WKvIwvED6xIB-2" value="&lt;span style=&quot;text-align: start;&quot;&gt;Business account details&lt;/span&gt;" style="text;html=1;align=center;verticalAlign=middle;whiteSpace=wrap;rounded=0;" parent="xRr5vuv_WKvIwvED6xIB-1" vertex="1">
          <mxGeometry x="40" width="140" height="40" as="geometry" />
        </mxCell>
        <mxCell id="xRr5vuv_WKvIwvED6xIB-3" value="ID" style="text;html=1;align=center;verticalAlign=middle;whiteSpace=wrap;rounded=0;" parent="xRr5vuv_WKvIwvED6xIB-1" vertex="1">
          <mxGeometry y="40" width="200" height="40" as="geometry" />
        </mxCell>
        <mxCell id="xRr5vuv_WKvIwvED6xIB-4" value="KPP" style="text;html=1;align=center;verticalAlign=middle;whiteSpace=wrap;rounded=0;" parent="xRr5vuv_WKvIwvED6xIB-1" vertex="1">
          <mxGeometry y="120" width="200" height="40" as="geometry" />
        </mxCell>
        <mxCell id="xRr5vuv_WKvIwvED6xIB-5" value="P/S" style="text;html=1;align=center;verticalAlign=middle;whiteSpace=wrap;rounded=0;" parent="xRr5vuv_WKvIwvED6xIB-1" vertex="1">
          <mxGeometry y="320" width="200" height="40" as="geometry" />
        </mxCell>
        <mxCell id="xRr5vuv_WKvIwvED6xIB-7" value="Name bank" style="text;html=1;align=center;verticalAlign=middle;whiteSpace=wrap;rounded=0;" parent="xRr5vuv_WKvIwvED6xIB-1" vertex="1">
          <mxGeometry y="80" width="200" height="40" as="geometry" />
        </mxCell>
        <mxCell id="xRr5vuv_WKvIwvED6xIB-8" value="OKPO" style="text;html=1;align=center;verticalAlign=middle;whiteSpace=wrap;rounded=0;" parent="xRr5vuv_WKvIwvED6xIB-1" vertex="1">
          <mxGeometry y="280" width="200" height="40" as="geometry" />
        </mxCell>
        <mxCell id="xRr5vuv_WKvIwvED6xIB-9" value="L/S" style="text;html=1;align=center;verticalAlign=middle;whiteSpace=wrap;rounded=0;" parent="xRr5vuv_WKvIwvED6xIB-1" vertex="1">
          <mxGeometry y="240" width="200" height="40" as="geometry" />
        </mxCell>
        <mxCell id="xRr5vuv_WKvIwvED6xIB-10" value="INN" style="text;html=1;align=center;verticalAlign=middle;whiteSpace=wrap;rounded=0;" parent="xRr5vuv_WKvIwvED6xIB-1" vertex="1">
          <mxGeometry y="160" width="200" height="40" as="geometry" />
        </mxCell>
        <mxCell id="xRr5vuv_WKvIwvED6xIB-11" value="BIK" style="text;html=1;align=center;verticalAlign=middle;whiteSpace=wrap;rounded=0;" parent="xRr5vuv_WKvIwvED6xIB-1" vertex="1">
          <mxGeometry y="200" width="200" height="40" as="geometry" />
        </mxCell>
        <mxCell id="xRr5vuv_WKvIwvED6xIB-13" style="edgeStyle=orthogonalEdgeStyle;rounded=0;orthogonalLoop=1;jettySize=auto;html=1;exitX=0;exitY=0.5;exitDx=0;exitDy=0;entryX=1;entryY=0.5;entryDx=0;entryDy=0;" parent="1" source="xRr5vuv_WKvIwvED6xIB-3" target="csLIRg7EKENoaghVLYN3-116" edge="1">
          <mxGeometry relative="1" as="geometry">
            <Array as="points">
              <mxPoint x="2000" y="-394" />
              <mxPoint x="1960" y="-394" />
              <mxPoint x="1960" y="-590" />
              <mxPoint x="1820" y="-590" />
              <mxPoint x="1820" y="-686" />
            </Array>
          </mxGeometry>
        </mxCell>
        <mxCell id="xRr5vuv_WKvIwvED6xIB-15" value="" style="swimlane;startSize=0;" parent="1" vertex="1">
          <mxGeometry x="2020" y="-980" width="200" height="120" as="geometry">
            <mxRectangle x="40" y="200" width="50" height="40" as="alternateBounds" />
          </mxGeometry>
        </mxCell>
        <mxCell id="xRr5vuv_WKvIwvED6xIB-16" value="Status order" style="text;html=1;align=center;verticalAlign=middle;whiteSpace=wrap;rounded=0;" parent="xRr5vuv_WKvIwvED6xIB-15" vertex="1">
          <mxGeometry x="50" width="100" height="30" as="geometry" />
        </mxCell>
        <mxCell id="xRr5vuv_WKvIwvED6xIB-17" value="ID" style="text;html=1;align=center;verticalAlign=middle;whiteSpace=wrap;rounded=0;" parent="xRr5vuv_WKvIwvED6xIB-15" vertex="1">
          <mxGeometry y="40" width="200" height="40" as="geometry" />
        </mxCell>
        <mxCell id="xRr5vuv_WKvIwvED6xIB-18" value="Name" style="text;html=1;align=center;verticalAlign=middle;whiteSpace=wrap;rounded=0;" parent="xRr5vuv_WKvIwvED6xIB-15" vertex="1">
          <mxGeometry y="80" width="200" height="40" as="geometry" />
        </mxCell>
        <mxCell id="tyz_u_CxFQXvNKMrJdVT-3" style="edgeStyle=orthogonalEdgeStyle;rounded=0;orthogonalLoop=1;jettySize=auto;html=1;entryX=0;entryY=0.5;entryDx=0;entryDy=0;" parent="1" source="b094mv4lrQVxFqOp9tiN-3" target="b094mv4lrQVxFqOp9tiN-1" edge="1">
          <mxGeometry relative="1" as="geometry">
            <Array as="points">
              <mxPoint x="1350" y="-966" />
              <mxPoint x="1350" y="-806" />
            </Array>
          </mxGeometry>
        </mxCell>
        <mxCell id="tyz_u_CxFQXvNKMrJdVT-4" value="" style="swimlane;startSize=0;" parent="1" vertex="1">
          <mxGeometry x="2010" y="-1580" width="200" height="160" as="geometry">
            <mxRectangle x="40" y="200" width="50" height="40" as="alternateBounds" />
          </mxGeometry>
        </mxCell>
        <mxCell id="tyz_u_CxFQXvNKMrJdVT-5" value="Store" style="text;html=1;align=center;verticalAlign=middle;whiteSpace=wrap;rounded=0;" parent="tyz_u_CxFQXvNKMrJdVT-4" vertex="1">
          <mxGeometry x="60" width="80" height="30" as="geometry" />
        </mxCell>
        <mxCell id="tyz_u_CxFQXvNKMrJdVT-6" value="ID" style="text;html=1;align=center;verticalAlign=middle;whiteSpace=wrap;rounded=0;" parent="tyz_u_CxFQXvNKMrJdVT-4" vertex="1">
          <mxGeometry y="40" width="200" height="40" as="geometry" />
        </mxCell>
        <mxCell id="tyz_u_CxFQXvNKMrJdVT-13" value="ID_Order&amp;nbsp;" style="text;html=1;align=center;verticalAlign=middle;whiteSpace=wrap;rounded=0;" parent="tyz_u_CxFQXvNKMrJdVT-4" vertex="1">
          <mxGeometry y="120" width="200" height="40" as="geometry" />
        </mxCell>
        <mxCell id="tyz_u_CxFQXvNKMrJdVT-17" value="&lt;span style=&quot;color: rgba(0, 0, 0, 0); font-family: monospace; font-size: 0px; text-align: start; text-wrap: nowrap;&quot;&gt;%3CmxGraphModel%3E%3Croot%3E%3CmxCell%20id%3D%220%22%2F%3E%3CmxCell%20id%3D%221%22%20parent%3D%220%22%2F%3E%3CmxCell%20id%3D%222%22%20value%3D%22Quantity%22%20style%3D%22text%3Bhtml%3D1%3Balign%3Dcenter%3BverticalAlign%3Dmiddle%3BwhiteSpace%3Dwrap%3Brounded%3D0%3B%22%20vertex%3D%221%22%20parent%3D%221%22%3E%3CmxGeometry%20x%3D%22550%22%20y%3D%22-1020%22%20width%3D%22200%22%20height%3D%2240%22%20as%3D%22geometry%22%2F%3E%3C%2FmxCell%3E%3C%2Froot%3E%3C%2FmxGraphModel%3E&lt;/span&gt;" style="text;html=1;align=center;verticalAlign=middle;whiteSpace=wrap;rounded=0;" parent="tyz_u_CxFQXvNKMrJdVT-4" vertex="1">
          <mxGeometry y="90" width="200" height="40" as="geometry" />
        </mxCell>
        <mxCell id="tyz_u_CxFQXvNKMrJdVT-18" value="Quantity" style="text;html=1;align=center;verticalAlign=middle;whiteSpace=wrap;rounded=0;" parent="tyz_u_CxFQXvNKMrJdVT-4" vertex="1">
          <mxGeometry y="80" width="200" height="40" as="geometry" />
        </mxCell>
        <mxCell id="tyz_u_CxFQXvNKMrJdVT-16" style="edgeStyle=orthogonalEdgeStyle;rounded=0;orthogonalLoop=1;jettySize=auto;html=1;exitX=0;exitY=0.5;exitDx=0;exitDy=0;entryX=1;entryY=0.5;entryDx=0;entryDy=0;" parent="1" source="tyz_u_CxFQXvNKMrJdVT-13" target="csLIRg7EKENoaghVLYN3-137" edge="1">
          <mxGeometry relative="1" as="geometry">
            <Array as="points">
              <mxPoint x="1960" y="-1440" />
              <mxPoint x="1960" y="-1130" />
            </Array>
          </mxGeometry>
        </mxCell>
        <mxCell id="tyz_u_CxFQXvNKMrJdVT-20" style="edgeStyle=orthogonalEdgeStyle;rounded=0;orthogonalLoop=1;jettySize=auto;html=1;exitX=0;exitY=0.5;exitDx=0;exitDy=0;entryX=1;entryY=0.5;entryDx=0;entryDy=0;" parent="1" source="csLIRg7EKENoaghVLYN3-127" target="csLIRg7EKENoaghVLYN3-144" edge="1">
          <mxGeometry relative="1" as="geometry" />
        </mxCell>
        <mxCell id="tyz_u_CxFQXvNKMrJdVT-21" style="edgeStyle=orthogonalEdgeStyle;rounded=0;orthogonalLoop=1;jettySize=auto;html=1;exitX=0;exitY=0.5;exitDx=0;exitDy=0;entryX=1;entryY=0.5;entryDx=0;entryDy=0;" parent="1" source="xRr5vuv_WKvIwvED6xIB-17" target="xRr5vuv_WKvIwvED6xIB-14" edge="1">
          <mxGeometry relative="1" as="geometry" />
        </mxCell>
        <mxCell id="8iAgz6GP0BhCK0G63EhW-3" value="" style="swimlane;startSize=0;" parent="1" vertex="1">
          <mxGeometry x="2250" y="-1940" width="200" height="160" as="geometry">
            <mxRectangle x="40" y="200" width="50" height="40" as="alternateBounds" />
          </mxGeometry>
        </mxCell>
        <mxCell id="8iAgz6GP0BhCK0G63EhW-4" value="Type Auth" style="text;html=1;align=center;verticalAlign=middle;whiteSpace=wrap;rounded=0;" parent="8iAgz6GP0BhCK0G63EhW-3" vertex="1">
          <mxGeometry x="60" width="80" height="30" as="geometry" />
        </mxCell>
        <mxCell id="8iAgz6GP0BhCK0G63EhW-5" value="ID" style="text;html=1;align=center;verticalAlign=middle;whiteSpace=wrap;rounded=0;" parent="8iAgz6GP0BhCK0G63EhW-3" vertex="1">
          <mxGeometry y="40" width="200" height="40" as="geometry" />
        </mxCell>
        <mxCell id="8iAgz6GP0BhCK0G63EhW-7" value="String" style="text;html=1;align=center;verticalAlign=middle;whiteSpace=wrap;rounded=0;" parent="8iAgz6GP0BhCK0G63EhW-3" vertex="1">
          <mxGeometry y="120" width="200" height="40" as="geometry" />
        </mxCell>
        <mxCell id="8iAgz6GP0BhCK0G63EhW-18" value="Tittle" style="text;html=1;align=center;verticalAlign=middle;whiteSpace=wrap;rounded=0;" parent="8iAgz6GP0BhCK0G63EhW-3" vertex="1">
          <mxGeometry y="80" width="200" height="40" as="geometry" />
        </mxCell>
        <mxCell id="8iAgz6GP0BhCK0G63EhW-10" value="" style="swimlane;startSize=0;" parent="1" vertex="1">
          <mxGeometry x="2250" y="-2180" width="200" height="200" as="geometry">
            <mxRectangle x="40" y="200" width="50" height="40" as="alternateBounds" />
          </mxGeometry>
        </mxCell>
        <mxCell id="8iAgz6GP0BhCK0G63EhW-11" value="Auth" style="text;html=1;align=center;verticalAlign=middle;whiteSpace=wrap;rounded=0;" parent="8iAgz6GP0BhCK0G63EhW-10" vertex="1">
          <mxGeometry x="60" width="80" height="30" as="geometry" />
        </mxCell>
        <mxCell id="8iAgz6GP0BhCK0G63EhW-12" value="ID" style="text;html=1;align=center;verticalAlign=middle;whiteSpace=wrap;rounded=0;" parent="8iAgz6GP0BhCK0G63EhW-10" vertex="1">
          <mxGeometry y="40" width="200" height="40" as="geometry" />
        </mxCell>
        <mxCell id="8iAgz6GP0BhCK0G63EhW-13" value="MobNum" style="text;html=1;align=center;verticalAlign=middle;whiteSpace=wrap;rounded=0;" parent="8iAgz6GP0BhCK0G63EhW-10" vertex="1">
          <mxGeometry y="80" width="200" height="40" as="geometry" />
        </mxCell>
        <mxCell id="8iAgz6GP0BhCK0G63EhW-14" value="Password" style="text;html=1;align=center;verticalAlign=middle;whiteSpace=wrap;rounded=0;" parent="8iAgz6GP0BhCK0G63EhW-10" vertex="1">
          <mxGeometry y="120" width="200" height="40" as="geometry" />
        </mxCell>
        <mxCell id="8iAgz6GP0BhCK0G63EhW-15" value="ID_typeAyth" style="text;html=1;align=center;verticalAlign=middle;whiteSpace=wrap;rounded=0;" parent="8iAgz6GP0BhCK0G63EhW-10" vertex="1">
          <mxGeometry y="160" width="200" height="40" as="geometry" />
        </mxCell>
        <mxCell id="8iAgz6GP0BhCK0G63EhW-16" style="edgeStyle=orthogonalEdgeStyle;rounded=0;orthogonalLoop=1;jettySize=auto;html=1;exitX=0;exitY=0.5;exitDx=0;exitDy=0;entryX=1;entryY=0.5;entryDx=0;entryDy=0;" parent="1" source="8iAgz6GP0BhCK0G63EhW-12" target="8iAgz6GP0BhCK0G63EhW-2" edge="1">
          <mxGeometry relative="1" as="geometry" />
        </mxCell>
        <mxCell id="8iAgz6GP0BhCK0G63EhW-17" style="edgeStyle=orthogonalEdgeStyle;rounded=0;orthogonalLoop=1;jettySize=auto;html=1;exitX=1;exitY=0.5;exitDx=0;exitDy=0;entryX=1;entryY=0.5;entryDx=0;entryDy=0;" parent="1" source="8iAgz6GP0BhCK0G63EhW-15" target="8iAgz6GP0BhCK0G63EhW-5" edge="1">
          <mxGeometry relative="1" as="geometry" />
        </mxCell>
        <mxCell id="r0LpOxUrnOzCtorjv0A--1" value="" style="swimlane;startSize=0;" parent="1" vertex="1">
          <mxGeometry x="1780" y="-2260" width="200" height="160" as="geometry">
            <mxRectangle x="40" y="200" width="50" height="40" as="alternateBounds" />
          </mxGeometry>
        </mxCell>
        <mxCell id="r0LpOxUrnOzCtorjv0A--2" value="Pnandomat Users story" style="text;html=1;align=center;verticalAlign=middle;whiteSpace=wrap;rounded=0;" parent="r0LpOxUrnOzCtorjv0A--1" vertex="1">
          <mxGeometry x="60" width="80" height="30" as="geometry" />
        </mxCell>
        <mxCell id="r0LpOxUrnOzCtorjv0A--4" value="ID_phandomat" style="text;html=1;align=center;verticalAlign=middle;whiteSpace=wrap;rounded=0;" parent="r0LpOxUrnOzCtorjv0A--1" vertex="1">
          <mxGeometry y="80" width="200" height="40" as="geometry" />
        </mxCell>
        <mxCell id="r0LpOxUrnOzCtorjv0A--7" value="ID_User phiz.face" style="text;html=1;align=center;verticalAlign=middle;whiteSpace=wrap;rounded=0;" parent="r0LpOxUrnOzCtorjv0A--1" vertex="1">
          <mxGeometry y="120" width="200" height="40" as="geometry" />
        </mxCell>
        <mxCell id="MBNA6LIcdyiV74psL_LO-7" value="ID" style="text;html=1;align=center;verticalAlign=middle;whiteSpace=wrap;rounded=0;" parent="r0LpOxUrnOzCtorjv0A--1" vertex="1">
          <mxGeometry y="40" width="200" height="40" as="geometry" />
        </mxCell>
        <mxCell id="r0LpOxUrnOzCtorjv0A--8" style="edgeStyle=orthogonalEdgeStyle;rounded=0;orthogonalLoop=1;jettySize=auto;html=1;exitX=1;exitY=0.5;exitDx=0;exitDy=0;" parent="1" source="csLIRg7EKENoaghVLYN3-167" target="r0LpOxUrnOzCtorjv0A--4" edge="1">
          <mxGeometry relative="1" as="geometry" />
        </mxCell>
        <mxCell id="r0LpOxUrnOzCtorjv0A--9" style="edgeStyle=orthogonalEdgeStyle;rounded=0;orthogonalLoop=1;jettySize=auto;html=1;exitX=1;exitY=0.5;exitDx=0;exitDy=0;entryX=1;entryY=0.5;entryDx=0;entryDy=0;" parent="1" source="csLIRg7EKENoaghVLYN3-36" target="r0LpOxUrnOzCtorjv0A--7" edge="1">
          <mxGeometry relative="1" as="geometry" />
        </mxCell>
        <mxCell id="AszL2Cz35tuWE-fF-ffO-2" style="edgeStyle=orthogonalEdgeStyle;rounded=0;orthogonalLoop=1;jettySize=auto;html=1;exitX=0;exitY=0.5;exitDx=0;exitDy=0;entryX=1;entryY=0.5;entryDx=0;entryDy=0;" parent="1" source="csLIRg7EKENoaghVLYN3-150" target="csLIRg7EKENoaghVLYN3-117" edge="1">
          <mxGeometry relative="1" as="geometry">
            <Array as="points">
              <mxPoint x="2230" y="-440" />
              <mxPoint x="2230" y="-470" />
              <mxPoint x="1990" y="-470" />
              <mxPoint x="1990" y="-670" />
              <mxPoint x="1860" y="-670" />
              <mxPoint x="1860" y="-710" />
              <mxPoint x="1610" y="-710" />
              <mxPoint x="1610" y="-726" />
            </Array>
          </mxGeometry>
        </mxCell>
        <mxCell id="AszL2Cz35tuWE-fF-ffO-3" style="edgeStyle=orthogonalEdgeStyle;rounded=0;orthogonalLoop=1;jettySize=auto;html=1;exitX=0;exitY=0.5;exitDx=0;exitDy=0;entryX=0;entryY=0.5;entryDx=0;entryDy=0;" parent="1" source="h2uy1tZPQLhtZi0CYQHW-22" target="tyz_u_CxFQXvNKMrJdVT-25" edge="1">
          <mxGeometry relative="1" as="geometry">
            <Array as="points">
              <mxPoint x="1040" y="-2010" />
              <mxPoint x="1040" y="-1210" />
              <mxPoint x="1690" y="-1210" />
              <mxPoint x="1690" y="-850" />
            </Array>
          </mxGeometry>
        </mxCell>
        <mxCell id="AszL2Cz35tuWE-fF-ffO-13" style="edgeStyle=orthogonalEdgeStyle;rounded=0;orthogonalLoop=1;jettySize=auto;html=1;exitX=0;exitY=0.5;exitDx=0;exitDy=0;entryX=1;entryY=0.5;entryDx=0;entryDy=0;" parent="1" source="tyz_u_CxFQXvNKMrJdVT-6" target="AszL2Cz35tuWE-fF-ffO-12" edge="1">
          <mxGeometry relative="1" as="geometry">
            <Array as="points">
              <mxPoint x="1960" y="-1520" />
              <mxPoint x="1960" y="-1660" />
            </Array>
          </mxGeometry>
        </mxCell>
        <mxCell id="2XbvuphtjNcj6sD8ovj1-1" value="" style="swimlane;startSize=0;" parent="1" vertex="1">
          <mxGeometry x="1100" y="-716" width="200" height="290" as="geometry">
            <mxRectangle x="40" y="200" width="50" height="40" as="alternateBounds" />
          </mxGeometry>
        </mxCell>
        <mxCell id="2XbvuphtjNcj6sD8ovj1-2" value="ID" style="text;html=1;align=center;verticalAlign=middle;whiteSpace=wrap;rounded=0;" parent="2XbvuphtjNcj6sD8ovj1-1" vertex="1">
          <mxGeometry y="60" width="200" height="40" as="geometry" />
        </mxCell>
        <mxCell id="2XbvuphtjNcj6sD8ovj1-3" value="Adress" style="text;html=1;align=center;verticalAlign=middle;whiteSpace=wrap;rounded=0;" parent="2XbvuphtjNcj6sD8ovj1-1" vertex="1">
          <mxGeometry width="200" height="40" as="geometry" />
        </mxCell>
        <mxCell id="2XbvuphtjNcj6sD8ovj1-4" value="Counrty" style="text;html=1;align=center;verticalAlign=middle;whiteSpace=wrap;rounded=0;" parent="2XbvuphtjNcj6sD8ovj1-1" vertex="1">
          <mxGeometry y="90" width="200" height="40" as="geometry" />
        </mxCell>
        <mxCell id="2XbvuphtjNcj6sD8ovj1-6" value="Town&lt;span style=&quot;color: rgba(0, 0, 0, 0); font-family: monospace; font-size: 0px; text-align: start; text-wrap: nowrap;&quot;&gt;%3CmxGraphModel%3E%3Croot%3E%3CmxCell%20id%3D%220%22%2F%3E%3CmxCell%20id%3D%221%22%20parent%3D%220%22%2F%3E%3CmxCell%20id%3D%222%22%20value%3D%22Counrty%22%20style%3D%22text%3Bhtml%3D1%3Balign%3Dcenter%3BverticalAlign%3Dmiddle%3BwhiteSpace%3Dwrap%3Brounded%3D0%3B%22%20vertex%3D%221%22%20parent%3D%221%22%3E%3CmxGeometry%20x%3D%22850%22%20y%3D%22-360%22%20width%3D%22200%22%20height%3D%2240%22%20as%3D%22geometry%22%2F%3E%3C%2FmxCell%3E%3C%2Froot%3E%3C%2FmxGraphModel%3E&lt;/span&gt;" style="text;html=1;align=center;verticalAlign=middle;whiteSpace=wrap;rounded=0;" parent="2XbvuphtjNcj6sD8ovj1-1" vertex="1">
          <mxGeometry y="130" width="200" height="40" as="geometry" />
        </mxCell>
        <mxCell id="2XbvuphtjNcj6sD8ovj1-7" value="Street&lt;span style=&quot;color: rgba(0, 0, 0, 0); font-family: monospace; font-size: 0px; text-align: start; text-wrap: nowrap;&quot;&gt;%3CmxGraphModel%3E%3Croot%3E%3CmxCell%20id%3D%220%22%2F%3E%3CmxCell%20id%3D%221%22%20parent%3D%220%22%2F%3E%3CmxCell%20id%3D%222%22%20value%3D%22Town%26lt%3Bspan%20style%3D%26quot%3Bcolor%3A%20rgba(0%2C%200%2C%200%2C%200)%3B%20font-family%3A%20monospace%3B%20font-size%3A%200px%3B%20text-align%3A%20start%3B%20text-wrap%3A%20nowrap%3B%26quot%3B%26gt%3B%253CmxGraphModel%253E%253Croot%253E%253CmxCell%2520id%253D%25220%2522%252F%253E%253CmxCell%2520id%253D%25221%2522%2520parent%253D%25220%2522%252F%253E%253CmxCell%2520id%253D%25222%2522%2520value%253D%2522Counrty%2522%2520style%253D%2522text%253Bhtml%253D1%253Balign%253Dcenter%253BverticalAlign%253Dmiddle%253BwhiteSpace%253Dwrap%253Brounded%253D0%253B%2522%2520vertex%253D%25221%2522%2520parent%253D%25221%2522%253E%253CmxGeometry%2520x%253D%2522850%2522%2520y%253D%2522-360%2522%2520width%253D%2522200%2522%2520height%253D%252240%2522%2520as%253D%2522geometry%2522%252F%253E%253C%252FmxCell%253E%253C%252Froot%253E%253C%252FmxGraphModel%253E%26lt%3B%2Fspan%26gt%3B%22%20style%3D%22text%3Bhtml%3D1%3Balign%3Dcenter%3BverticalAlign%3Dmiddle%3BwhiteSpace%3Dwrap%3Brounded%3D0%3B%22%20vertex%3D%221%22%20parent%3D%221%22%3E%3CmxGeometry%20x%3D%22850%22%20y%3D%22-320%22%20width%3D%22200%22%20height%3D%2240%22%20as%3D%22geometry%22%2F%3E%3C%2FmxCell%3E%3C%2Froot%3E%3C%2FmxGraphModel%3E&lt;/span&gt;" style="text;html=1;align=center;verticalAlign=middle;whiteSpace=wrap;rounded=0;" parent="2XbvuphtjNcj6sD8ovj1-1" vertex="1">
          <mxGeometry y="170" width="200" height="40" as="geometry" />
        </mxCell>
        <mxCell id="2XbvuphtjNcj6sD8ovj1-8" value="Num Of house" style="text;html=1;align=center;verticalAlign=middle;whiteSpace=wrap;rounded=0;" parent="2XbvuphtjNcj6sD8ovj1-1" vertex="1">
          <mxGeometry y="210" width="200" height="40" as="geometry" />
        </mxCell>
        <mxCell id="2XbvuphtjNcj6sD8ovj1-9" value="ID_typeAdress" style="text;html=1;align=center;verticalAlign=middle;whiteSpace=wrap;rounded=0;" parent="2XbvuphtjNcj6sD8ovj1-1" vertex="1">
          <mxGeometry y="250" width="200" height="40" as="geometry" />
        </mxCell>
        <mxCell id="2XbvuphtjNcj6sD8ovj1-5" style="edgeStyle=orthogonalEdgeStyle;rounded=0;orthogonalLoop=1;jettySize=auto;html=1;exitX=1;exitY=0.5;exitDx=0;exitDy=0;entryX=0;entryY=0.5;entryDx=0;entryDy=0;" parent="1" source="2XbvuphtjNcj6sD8ovj1-2" target="csLIRg7EKENoaghVLYN3-120" edge="1">
          <mxGeometry relative="1" as="geometry" />
        </mxCell>
        <mxCell id="2XbvuphtjNcj6sD8ovj1-15" value="" style="swimlane;startSize=0;" parent="1" vertex="1">
          <mxGeometry x="1370" y="-530" width="200" height="140" as="geometry">
            <mxRectangle x="40" y="200" width="50" height="40" as="alternateBounds" />
          </mxGeometry>
        </mxCell>
        <mxCell id="2XbvuphtjNcj6sD8ovj1-16" value="ID" style="text;html=1;align=center;verticalAlign=middle;whiteSpace=wrap;rounded=0;" parent="2XbvuphtjNcj6sD8ovj1-15" vertex="1">
          <mxGeometry y="60" width="200" height="40" as="geometry" />
        </mxCell>
        <mxCell id="2XbvuphtjNcj6sD8ovj1-17" value="Type Adress" style="text;html=1;align=center;verticalAlign=middle;whiteSpace=wrap;rounded=0;" parent="2XbvuphtjNcj6sD8ovj1-15" vertex="1">
          <mxGeometry width="200" height="40" as="geometry" />
        </mxCell>
        <mxCell id="2XbvuphtjNcj6sD8ovj1-18" value="Tittle" style="text;html=1;align=center;verticalAlign=middle;whiteSpace=wrap;rounded=0;" parent="2XbvuphtjNcj6sD8ovj1-15" vertex="1">
          <mxGeometry y="100" width="200" height="40" as="geometry" />
        </mxCell>
        <mxCell id="2XbvuphtjNcj6sD8ovj1-19" style="edgeStyle=orthogonalEdgeStyle;rounded=0;orthogonalLoop=1;jettySize=auto;html=1;exitX=0;exitY=0.5;exitDx=0;exitDy=0;entryX=1;entryY=0.5;entryDx=0;entryDy=0;" parent="1" source="2XbvuphtjNcj6sD8ovj1-16" target="2XbvuphtjNcj6sD8ovj1-9" edge="1">
          <mxGeometry relative="1" as="geometry" />
        </mxCell>
        <mxCell id="NR5KIYlSiuEwGmeg9oS_-1" value="" style="swimlane;startSize=0;direction=south;" parent="1" vertex="1">
          <mxGeometry x="830" y="-890" width="200" height="440" as="geometry">
            <mxRectangle x="40" y="200" width="50" height="40" as="alternateBounds" />
          </mxGeometry>
        </mxCell>
        <mxCell id="NR5KIYlSiuEwGmeg9oS_-2" value="Company Form" style="text;html=1;align=center;verticalAlign=middle;whiteSpace=wrap;rounded=0;" parent="NR5KIYlSiuEwGmeg9oS_-1" vertex="1">
          <mxGeometry x="60" y="4" width="80" height="30" as="geometry" />
        </mxCell>
        <mxCell id="NR5KIYlSiuEwGmeg9oS_-3" value="ID" style="text;html=1;align=center;verticalAlign=middle;whiteSpace=wrap;rounded=0;" parent="NR5KIYlSiuEwGmeg9oS_-1" vertex="1">
          <mxGeometry y="34" width="200" height="40" as="geometry" />
        </mxCell>
        <mxCell id="NR5KIYlSiuEwGmeg9oS_-4" value="Company name" style="text;html=1;align=center;verticalAlign=middle;whiteSpace=wrap;rounded=0;" parent="NR5KIYlSiuEwGmeg9oS_-1" vertex="1">
          <mxGeometry y="74" width="200" height="40" as="geometry" />
        </mxCell>
        <mxCell id="NR5KIYlSiuEwGmeg9oS_-5" value="Mail" style="text;html=1;align=center;verticalAlign=middle;whiteSpace=wrap;rounded=0;" parent="NR5KIYlSiuEwGmeg9oS_-1" vertex="1">
          <mxGeometry y="190" width="200" height="40" as="geometry" />
        </mxCell>
        <mxCell id="NR5KIYlSiuEwGmeg9oS_-8" value="Web" style="text;html=1;align=center;verticalAlign=middle;whiteSpace=wrap;rounded=0;" parent="NR5KIYlSiuEwGmeg9oS_-1" vertex="1">
          <mxGeometry y="230" width="200" height="40" as="geometry" />
        </mxCell>
        <mxCell id="NR5KIYlSiuEwGmeg9oS_-9" value="Full name gen.dir" style="text;html=1;align=center;verticalAlign=middle;whiteSpace=wrap;rounded=0;" parent="NR5KIYlSiuEwGmeg9oS_-1" vertex="1">
          <mxGeometry y="310" width="200" height="40" as="geometry" />
        </mxCell>
        <mxCell id="NR5KIYlSiuEwGmeg9oS_-11" value="Ur.address" style="text;html=1;align=center;verticalAlign=middle;whiteSpace=wrap;rounded=0;" parent="NR5KIYlSiuEwGmeg9oS_-1" vertex="1">
          <mxGeometry y="270" width="200" height="40" as="geometry" />
        </mxCell>
        <mxCell id="NR5KIYlSiuEwGmeg9oS_-12" value="INN" style="text;html=1;align=center;verticalAlign=middle;whiteSpace=wrap;rounded=0;" parent="NR5KIYlSiuEwGmeg9oS_-1" vertex="1">
          <mxGeometry y="110" width="200" height="40" as="geometry" />
        </mxCell>
        <mxCell id="NR5KIYlSiuEwGmeg9oS_-13" value="&lt;div style=&quot;text-align: start;&quot;&gt;&lt;span style=&quot;text-align: center;&quot;&gt;Full User con Company phiz.face&lt;/span&gt;&lt;br&gt;&lt;/div&gt;" style="text;html=1;align=center;verticalAlign=middle;whiteSpace=wrap;rounded=0;" parent="NR5KIYlSiuEwGmeg9oS_-1" vertex="1">
          <mxGeometry y="350" width="200" height="40" as="geometry" />
        </mxCell>
        <mxCell id="NR5KIYlSiuEwGmeg9oS_-14" value="Data reg" style="text;html=1;align=center;verticalAlign=middle;whiteSpace=wrap;rounded=0;" parent="NR5KIYlSiuEwGmeg9oS_-1" vertex="1">
          <mxGeometry y="150" width="200" height="40" as="geometry" />
        </mxCell>
        <mxCell id="NR5KIYlSiuEwGmeg9oS_-24" value="ID_Req.Status" style="text;html=1;align=center;verticalAlign=middle;whiteSpace=wrap;rounded=0;" parent="NR5KIYlSiuEwGmeg9oS_-1" vertex="1">
          <mxGeometry y="400" width="200" height="40" as="geometry" />
        </mxCell>
        <mxCell id="NR5KIYlSiuEwGmeg9oS_-26" value="" style="swimlane;startSize=0;" parent="1" vertex="1">
          <mxGeometry x="560" y="-570" width="200" height="140" as="geometry">
            <mxRectangle x="40" y="200" width="50" height="40" as="alternateBounds" />
          </mxGeometry>
        </mxCell>
        <mxCell id="NR5KIYlSiuEwGmeg9oS_-27" value="ID" style="text;html=1;align=center;verticalAlign=middle;whiteSpace=wrap;rounded=0;" parent="NR5KIYlSiuEwGmeg9oS_-26" vertex="1">
          <mxGeometry x="-3" y="50" width="200" height="40" as="geometry" />
        </mxCell>
        <mxCell id="NR5KIYlSiuEwGmeg9oS_-28" value="Req.Status&amp;nbsp;" style="text;html=1;align=center;verticalAlign=middle;whiteSpace=wrap;rounded=0;" parent="NR5KIYlSiuEwGmeg9oS_-26" vertex="1">
          <mxGeometry width="200" height="40" as="geometry" />
        </mxCell>
        <mxCell id="NR5KIYlSiuEwGmeg9oS_-29" value="Tittel" style="text;html=1;align=center;verticalAlign=middle;whiteSpace=wrap;rounded=0;" parent="NR5KIYlSiuEwGmeg9oS_-26" vertex="1">
          <mxGeometry y="100" width="200" height="40" as="geometry" />
        </mxCell>
        <mxCell id="NR5KIYlSiuEwGmeg9oS_-31" style="edgeStyle=orthogonalEdgeStyle;rounded=0;orthogonalLoop=1;jettySize=auto;html=1;exitX=1;exitY=0.5;exitDx=0;exitDy=0;entryX=0;entryY=0.5;entryDx=0;entryDy=0;" parent="1" source="NR5KIYlSiuEwGmeg9oS_-27" target="NR5KIYlSiuEwGmeg9oS_-24" edge="1">
          <mxGeometry relative="1" as="geometry" />
        </mxCell>
        <mxCell id="NR5KIYlSiuEwGmeg9oS_-32" style="edgeStyle=orthogonalEdgeStyle;rounded=0;orthogonalLoop=1;jettySize=auto;html=1;exitX=1;exitY=0.5;exitDx=0;exitDy=0;entryX=0;entryY=0.5;entryDx=0;entryDy=0;" parent="1" source="NR5KIYlSiuEwGmeg9oS_-3" target="NR5KIYlSiuEwGmeg9oS_-16" edge="1">
          <mxGeometry relative="1" as="geometry">
            <Array as="points">
              <mxPoint x="1030" y="-840" />
              <mxPoint x="1050" y="-840" />
              <mxPoint x="1050" y="-846" />
            </Array>
          </mxGeometry>
        </mxCell>
        <mxCell id="opOszz-HnJrdjQZakFIA-2" value="" style="swimlane;startSize=0;" parent="1" vertex="1">
          <mxGeometry x="1690" y="-1460" width="200" height="220" as="geometry">
            <mxRectangle x="40" y="200" width="50" height="40" as="alternateBounds" />
          </mxGeometry>
        </mxCell>
        <mxCell id="opOszz-HnJrdjQZakFIA-3" value="&lt;span style=&quot;text-align: start;&quot;&gt;Transaction&amp;nbsp;&lt;/span&gt;" style="text;html=1;align=center;verticalAlign=middle;whiteSpace=wrap;rounded=0;" parent="opOszz-HnJrdjQZakFIA-2" vertex="1">
          <mxGeometry x="60" width="80" height="30" as="geometry" />
        </mxCell>
        <mxCell id="opOszz-HnJrdjQZakFIA-4" value="ID" style="text;html=1;align=center;verticalAlign=middle;whiteSpace=wrap;rounded=0;" parent="opOszz-HnJrdjQZakFIA-2" vertex="1">
          <mxGeometry y="30" width="200" height="40" as="geometry" />
        </mxCell>
        <mxCell id="opOszz-HnJrdjQZakFIA-7" value="Date" style="text;html=1;align=center;verticalAlign=middle;whiteSpace=wrap;rounded=0;" parent="opOszz-HnJrdjQZakFIA-2" vertex="1">
          <mxGeometry y="100" width="200" height="40" as="geometry" />
        </mxCell>
        <mxCell id="opOszz-HnJrdjQZakFIA-18" value="ID_Status transaction&amp;nbsp;" style="text;html=1;align=center;verticalAlign=middle;whiteSpace=wrap;rounded=0;" parent="opOszz-HnJrdjQZakFIA-2" vertex="1">
          <mxGeometry y="180" width="200" height="40" as="geometry" />
        </mxCell>
        <mxCell id="z-p-9np8aNEtH0MGempq-9" value="Time" style="text;html=1;align=center;verticalAlign=middle;whiteSpace=wrap;rounded=0;" vertex="1" parent="opOszz-HnJrdjQZakFIA-2">
          <mxGeometry y="140" width="200" height="40" as="geometry" />
        </mxCell>
        <mxCell id="z-p-9np8aNEtH0MGempq-10" value="NumTransact" style="text;html=1;align=center;verticalAlign=middle;whiteSpace=wrap;rounded=0;" vertex="1" parent="opOszz-HnJrdjQZakFIA-2">
          <mxGeometry y="70" width="200" height="40" as="geometry" />
        </mxCell>
        <mxCell id="opOszz-HnJrdjQZakFIA-10" value="" style="swimlane;startSize=0;" parent="1" vertex="1">
          <mxGeometry x="2000" y="-1360" width="200" height="129" as="geometry">
            <mxRectangle x="40" y="200" width="50" height="40" as="alternateBounds" />
          </mxGeometry>
        </mxCell>
        <mxCell id="opOszz-HnJrdjQZakFIA-11" value="Status transaction&amp;nbsp;" style="text;html=1;align=center;verticalAlign=middle;whiteSpace=wrap;rounded=0;" parent="opOszz-HnJrdjQZakFIA-10" vertex="1">
          <mxGeometry x="60" width="80" height="30" as="geometry" />
        </mxCell>
        <mxCell id="opOszz-HnJrdjQZakFIA-12" value="ID" style="text;html=1;align=center;verticalAlign=middle;whiteSpace=wrap;rounded=0;" parent="opOszz-HnJrdjQZakFIA-10" vertex="1">
          <mxGeometry y="40" width="200" height="40" as="geometry" />
        </mxCell>
        <mxCell id="opOszz-HnJrdjQZakFIA-14" value="&lt;span style=&quot;color: rgba(0, 0, 0, 0); font-family: monospace; font-size: 0px; text-align: start; text-wrap: nowrap;&quot;&gt;%3CmxGraphModel%3E%3Croot%3E%3CmxCell%20id%3D%220%22%2F%3E%3CmxCell%20id%3D%221%22%20parent%3D%220%22%2F%3E%3CmxCell%20id%3D%222%22%20value%3D%22Quantity%22%20style%3D%22text%3Bhtml%3D1%3Balign%3Dcenter%3BverticalAlign%3Dmiddle%3BwhiteSpace%3Dwrap%3Brounded%3D0%3B%22%20vertex%3D%221%22%20parent%3D%221%22%3E%3CmxGeometry%20x%3D%22550%22%20y%3D%22-1020%22%20width%3D%22200%22%20height%3D%2240%22%20as%3D%22geometry%22%2F%3E%3C%2FmxCell%3E%3C%2Froot%3E%3C%2FmxGraphModel%3E&lt;/span&gt;" style="text;html=1;align=center;verticalAlign=middle;whiteSpace=wrap;rounded=0;" parent="opOszz-HnJrdjQZakFIA-10" vertex="1">
          <mxGeometry y="90" width="200" height="40" as="geometry" />
        </mxCell>
        <mxCell id="opOszz-HnJrdjQZakFIA-17" value="Tittle" style="text;html=1;align=center;verticalAlign=middle;whiteSpace=wrap;rounded=0;" parent="opOszz-HnJrdjQZakFIA-10" vertex="1">
          <mxGeometry y="80" width="200" height="40" as="geometry" />
        </mxCell>
        <mxCell id="opOszz-HnJrdjQZakFIA-19" style="edgeStyle=orthogonalEdgeStyle;rounded=0;orthogonalLoop=1;jettySize=auto;html=1;exitX=0;exitY=0.5;exitDx=0;exitDy=0;" parent="1" source="opOszz-HnJrdjQZakFIA-12" target="opOszz-HnJrdjQZakFIA-18" edge="1">
          <mxGeometry relative="1" as="geometry">
            <Array as="points">
              <mxPoint x="1940" y="-1300" />
              <mxPoint x="1940" y="-1260" />
            </Array>
          </mxGeometry>
        </mxCell>
        <mxCell id="opOszz-HnJrdjQZakFIA-21" style="edgeStyle=orthogonalEdgeStyle;rounded=0;orthogonalLoop=1;jettySize=auto;html=1;entryX=1;entryY=0.5;entryDx=0;entryDy=0;" parent="1" source="opOszz-HnJrdjQZakFIA-4" target="opOszz-HnJrdjQZakFIA-20" edge="1">
          <mxGeometry relative="1" as="geometry" />
        </mxCell>
        <mxCell id="opOszz-HnJrdjQZakFIA-22" style="edgeStyle=orthogonalEdgeStyle;rounded=0;orthogonalLoop=1;jettySize=auto;html=1;exitX=1;exitY=0.5;exitDx=0;exitDy=0;entryX=0;entryY=0.5;entryDx=0;entryDy=0;" parent="1" source="csLIRg7EKENoaghVLYN3-109" target="csLIRg7EKENoaghVLYN3-145" edge="1">
          <mxGeometry relative="1" as="geometry" />
        </mxCell>
        <mxCell id="MBNA6LIcdyiV74psL_LO-15" value="" style="swimlane;startSize=0;" parent="1" vertex="1">
          <mxGeometry x="2250" y="-1753" width="200" height="140" as="geometry">
            <mxRectangle x="40" y="200" width="50" height="40" as="alternateBounds" />
          </mxGeometry>
        </mxCell>
        <mxCell id="MBNA6LIcdyiV74psL_LO-16" value="ID" style="text;html=1;align=center;verticalAlign=middle;whiteSpace=wrap;rounded=0;" parent="MBNA6LIcdyiV74psL_LO-15" vertex="1">
          <mxGeometry x="-3" y="50" width="200" height="40" as="geometry" />
        </mxCell>
        <mxCell id="MBNA6LIcdyiV74psL_LO-17" value="User type" style="text;html=1;align=center;verticalAlign=middle;whiteSpace=wrap;rounded=0;" parent="MBNA6LIcdyiV74psL_LO-15" vertex="1">
          <mxGeometry width="200" height="40" as="geometry" />
        </mxCell>
        <mxCell id="MBNA6LIcdyiV74psL_LO-18" value="Tittel" style="text;html=1;align=center;verticalAlign=middle;whiteSpace=wrap;rounded=0;" parent="MBNA6LIcdyiV74psL_LO-15" vertex="1">
          <mxGeometry y="100" width="200" height="40" as="geometry" />
        </mxCell>
        <mxCell id="MBNA6LIcdyiV74psL_LO-19" style="edgeStyle=orthogonalEdgeStyle;rounded=0;orthogonalLoop=1;jettySize=auto;html=1;entryX=1;entryY=0.5;entryDx=0;entryDy=0;" parent="1" source="MBNA6LIcdyiV74psL_LO-16" target="MBNA6LIcdyiV74psL_LO-8" edge="1">
          <mxGeometry relative="1" as="geometry" />
        </mxCell>
        <mxCell id="z-p-9np8aNEtH0MGempq-1" value="" style="swimlane;startSize=0;" vertex="1" parent="1">
          <mxGeometry x="1360" y="-2000" width="200" height="110" as="geometry">
            <mxRectangle x="40" y="200" width="50" height="40" as="alternateBounds" />
          </mxGeometry>
        </mxCell>
        <mxCell id="z-p-9np8aNEtH0MGempq-2" value="Awards type" style="text;html=1;align=center;verticalAlign=middle;whiteSpace=wrap;rounded=0;" vertex="1" parent="z-p-9np8aNEtH0MGempq-1">
          <mxGeometry x="60" width="80" height="30" as="geometry" />
        </mxCell>
        <mxCell id="z-p-9np8aNEtH0MGempq-3" value="ID" style="text;html=1;align=center;verticalAlign=middle;whiteSpace=wrap;rounded=0;" vertex="1" parent="z-p-9np8aNEtH0MGempq-1">
          <mxGeometry y="30" width="200" height="40" as="geometry" />
        </mxCell>
        <mxCell id="z-p-9np8aNEtH0MGempq-5" value="Tittle" style="text;html=1;align=center;verticalAlign=middle;whiteSpace=wrap;rounded=0;" vertex="1" parent="z-p-9np8aNEtH0MGempq-1">
          <mxGeometry y="70" width="200" height="40" as="geometry" />
        </mxCell>
        <mxCell id="z-p-9np8aNEtH0MGempq-8" style="edgeStyle=orthogonalEdgeStyle;rounded=0;orthogonalLoop=1;jettySize=auto;html=1;exitX=1;exitY=0.5;exitDx=0;exitDy=0;entryX=0;entryY=0.5;entryDx=0;entryDy=0;" edge="1" parent="1" source="z-p-9np8aNEtH0MGempq-3" target="z-p-9np8aNEtH0MGempq-6">
          <mxGeometry relative="1" as="geometry" />
        </mxCell>
      </root>
    </mxGraphModel>
  </diagram>
  <diagram id="Ns9pRVumpq95iPwD-Fpf" name="DB Admin project">
    <mxGraphModel dx="319" dy="1968" grid="1" gridSize="10" guides="1" tooltips="1" connect="1" arrows="1" fold="1" page="1" pageScale="1" pageWidth="827" pageHeight="1169" math="0" shadow="0">
      <root>
        <mxCell id="0" />
        <mxCell id="1" parent="0" />
        <mxCell id="9RLOhpk11GwOws-OYs9m-1" value="" style="swimlane;startSize=0;" parent="1" vertex="1">
          <mxGeometry x="1117" y="-1074" width="200" height="200" as="geometry">
            <mxRectangle x="40" y="200" width="50" height="40" as="alternateBounds" />
          </mxGeometry>
        </mxCell>
        <mxCell id="9RLOhpk11GwOws-OYs9m-2" value="Admin/Investor" style="text;html=1;align=center;verticalAlign=middle;whiteSpace=wrap;rounded=0;" parent="9RLOhpk11GwOws-OYs9m-1" vertex="1">
          <mxGeometry x="60" width="80" height="30" as="geometry" />
        </mxCell>
        <mxCell id="9RLOhpk11GwOws-OYs9m-3" value="ID" style="text;html=1;align=center;verticalAlign=middle;whiteSpace=wrap;rounded=0;" parent="9RLOhpk11GwOws-OYs9m-1" vertex="1">
          <mxGeometry y="40" width="200" height="40" as="geometry" />
        </mxCell>
        <mxCell id="9RLOhpk11GwOws-OYs9m-4" value="ID_Role" style="text;html=1;align=center;verticalAlign=middle;whiteSpace=wrap;rounded=0;" parent="9RLOhpk11GwOws-OYs9m-1" vertex="1">
          <mxGeometry y="80" width="200" height="40" as="geometry" />
        </mxCell>
        <mxCell id="9RLOhpk11GwOws-OYs9m-5" value="Login" style="text;html=1;align=center;verticalAlign=middle;whiteSpace=wrap;rounded=0;" parent="9RLOhpk11GwOws-OYs9m-1" vertex="1">
          <mxGeometry y="120" width="200" height="40" as="geometry" />
        </mxCell>
        <mxCell id="9RLOhpk11GwOws-OYs9m-6" value="Password" style="text;html=1;align=center;verticalAlign=middle;whiteSpace=wrap;rounded=0;" parent="9RLOhpk11GwOws-OYs9m-1" vertex="1">
          <mxGeometry y="160" width="200" height="40" as="geometry" />
        </mxCell>
        <mxCell id="9RLOhpk11GwOws-OYs9m-7" value="" style="swimlane;startSize=0;" parent="1" vertex="1">
          <mxGeometry x="1397" y="-1154" width="200" height="120" as="geometry">
            <mxRectangle x="40" y="200" width="50" height="40" as="alternateBounds" />
          </mxGeometry>
        </mxCell>
        <mxCell id="9RLOhpk11GwOws-OYs9m-8" value="Role" style="text;html=1;align=center;verticalAlign=middle;whiteSpace=wrap;rounded=0;" parent="9RLOhpk11GwOws-OYs9m-7" vertex="1">
          <mxGeometry x="60" width="80" height="30" as="geometry" />
        </mxCell>
        <mxCell id="9RLOhpk11GwOws-OYs9m-9" value="ID" style="text;html=1;align=center;verticalAlign=middle;whiteSpace=wrap;rounded=0;" parent="9RLOhpk11GwOws-OYs9m-7" vertex="1">
          <mxGeometry y="40" width="200" height="40" as="geometry" />
        </mxCell>
        <mxCell id="9RLOhpk11GwOws-OYs9m-10" value="Name" style="text;html=1;align=center;verticalAlign=middle;whiteSpace=wrap;rounded=0;" parent="9RLOhpk11GwOws-OYs9m-7" vertex="1">
          <mxGeometry y="80" width="200" height="40" as="geometry" />
        </mxCell>
        <mxCell id="9RLOhpk11GwOws-OYs9m-11" style="edgeStyle=orthogonalEdgeStyle;rounded=0;orthogonalLoop=1;jettySize=auto;html=1;exitX=0;exitY=0.5;exitDx=0;exitDy=0;entryX=1;entryY=0.5;entryDx=0;entryDy=0;" parent="1" source="9RLOhpk11GwOws-OYs9m-9" target="9RLOhpk11GwOws-OYs9m-4" edge="1">
          <mxGeometry relative="1" as="geometry" />
        </mxCell>
      </root>
    </mxGraphModel>
  </diagram>
</mxfile>
